<?xml version="1.0" standalone="no"?>
<!DOCTYPE svg PUBLIC "-//W3C//DTD SVG 20010904//EN"
 "http://www.w3.org/TR/2001/REC-SVG-20010904/DTD/svg10.dtd">
<svg version="1.0" xmlns="http://www.w3.org/2000/svg"
 width="400.000000pt" height="400.000000pt" viewBox="0 0 400.000000 400.000000"
 preserveAspectRatio="xMidYMid meet">
<metadata>
Created by potrace 1.14, written by Peter Selinger 2001-2017
</metadata>
<g transform="translate(0.000000,400.000000) scale(0.100000,-0.100000)"
fill="#000000" stroke="none">
<path d="M2010 3253 c-66 -12 -189 -47 -256 -73 -73 -29 -75 -30 -136 -15 -35
8 -106 15 -159 15 -277 0 -587 -179 -653 -378 -13 -39 -24 -52 -54 -66 -98
-47 -253 -187 -298 -271 -29 -55 1 -108 50 -89 9 4 30 25 45 48 59 84 208 216
230 202 5 -3 11 -24 15 -47 8 -52 57 -160 85 -188 28 -28 57 -27 76 3 15 23
14 28 -21 98 -33 64 -38 84 -42 160 -4 80 -2 93 22 142 38 78 118 146 239 206
127 63 219 84 342 77 108 -5 206 -37 291 -94 92 -61 96 -63 116 -52 47 25 34
74 -32 118 -27 19 -50 38 -50 42 0 21 222 69 325 69 188 0 325 -72 422 -222
37 -59 47 -68 73 -68 22 0 33 6 41 24 10 20 7 33 -19 80 l-30 56 33 0 c59 0
228 -49 314 -92 120 -59 231 -170 289 -287 46 -92 52 -117 25 -106 -36 14
-183 18 -244 6 -96 -19 -198 -61 -216 -87 -14 -22 -14 -26 2 -50 20 -31 34
-30 145 12 63 24 90 28 175 29 91 0 105 -3 160 -29 159 -78 248 -260 231 -470
-10 -133 -43 -225 -108 -308 -27 -35 -140 -118 -159 -118 -6 0 -7 27 -4 63 3
35 0 88 -7 122 -11 51 -17 61 -41 69 -21 8 -31 6 -44 -7 -13 -13 -17 -39 -17
-139 -1 -116 -3 -126 -30 -176 -43 -76 -122 -147 -213 -188 -43 -20 -85 -39
-92 -43 -51 -26 -33 -213 34 -373 7 -17 -2 -18 -103 -18 l-109 0 -39 66 c-66
113 -224 249 -421 364 l-64 37 64 41 c72 46 122 98 157 160 l23 42 24 -35 c40
-59 128 -110 210 -121 137 -18 251 72 289 229 20 80 14 114 -23 123 -40 10
-56 -7 -70 -74 -21 -104 -60 -157 -129 -172 -110 -25 -224 62 -224 171 0 39
84 194 133 246 102 107 257 112 389 12 59 -44 77 -47 101 -21 26 28 21 50 -20
87 -52 48 -145 91 -224 105 -82 14 -165 -3 -248 -53 -79 -48 -112 -93 -223
-307 -56 -107 -114 -210 -129 -229 -74 -91 -197 -143 -344 -143 -82 -1 -100 3
-179 35 -181 74 -319 184 -376 301 -55 110 -52 249 6 373 60 125 224 241 354
251 127 9 178 -27 189 -133 9 -86 38 -108 82 -64 31 31 24 140 -13 196 l-26
39 40 40 c89 88 103 174 27 174 -21 0 -33 -9 -53 -45 -15 -24 -43 -58 -64 -76
-38 -31 -39 -32 -153 -33 -115 -1 -116 -1 -205 -45 -158 -78 -272 -215 -309
-373 -35 -149 -3 -334 72 -420 14 -15 12 -17 -19 -22 -231 -35 -489 17 -637
128 -56 42 -101 31 -101 -25 0 -20 11 -35 43 -59 64 -48 180 -99 286 -128 82
-21 118 -25 246 -25 83 0 178 5 212 12 l63 12 54 -40 c76 -57 169 -106 267
-143 72 -26 99 -31 191 -34 l107 -2 97 -51 c233 -123 398 -263 456 -387 17
-38 36 -72 42 -76 19 -13 391 -9 404 4 18 18 15 54 -9 101 -34 65 -67 172 -75
235 l-6 58 73 36 c41 21 96 55 122 77 48 40 127 129 127 143 0 5 8 8 19 8 10
0 56 19 102 42 201 100 309 293 309 550 -1 172 -51 306 -157 417 -53 56 -66
75 -78 126 -43 167 -157 330 -299 427 -133 91 -316 152 -494 164 -71 5 -104
12 -124 26 -44 30 -148 75 -206 87 -51 11 -229 13 -282 4z"/>
<path d="M2126 2955 c-34 -35 -32 -142 4 -238 45 -119 150 -222 256 -253 l55
-16 -3 -66 c-3 -66 -3 -67 -45 -95 -50 -33 -57 -67 -19 -92 21 -14 28 -14 58
-2 76 33 113 94 112 190 l0 67 40 11 c65 18 118 48 169 97 50 50 59 78 29 105
-27 25 -40 21 -87 -22 -71 -66 -119 -86 -205 -86 -69 0 -80 3 -127 33 -109 70
-156 151 -158 276 -1 64 -5 81 -20 92 -24 18 -40 18 -59 -1z"/>
<path d="M1480 2839 c-79 -15 -167 -66 -206 -117 -38 -53 -64 -126 -64 -184 0
-31 5 -41 24 -49 31 -15 64 3 72 39 19 84 28 107 59 140 57 64 180 91 260 58
18 -8 54 -33 78 -55 45 -42 82 -52 105 -29 49 49 -60 158 -193 193 -65 17 -70
17 -135 4z"/>
<path d="M1075 2298 c-8 -13 -34 -52 -57 -87 -93 -143 -204 -158 -331 -45 -42
39 -66 42 -92 14 -27 -30 -12 -64 48 -109 114 -87 216 -105 315 -55 79 39 183
166 198 242 5 23 1 33 -17 46 -31 22 -45 20 -64 -6z"/>
<path d="M364 2173 c-14 -15 -16 -32 -11 -119 2 -55 10 -110 16 -121 14 -27
45 -34 71 -16 20 14 21 20 14 132 -3 64 -11 122 -16 129 -15 17 -54 15 -74 -5z"/>
<path d="M2117 2012 c-10 -10 -17 -34 -17 -53 -1 -84 -72 -169 -158 -188 -80
-17 -146 5 -204 68 -25 28 -52 69 -60 92 -17 50 -35 64 -71 55 -42 -10 -44
-45 -9 -120 52 -111 131 -174 248 -199 141 -29 305 72 344 213 14 48 12 124
-2 138 -18 18 -53 15 -71 -6z"/>
</g>
</svg>
