<svg width="96" height="96" viewBox="0 0 96 96" fill="none" xmlns="http://www.w3.org/2000/svg">
<path d="M48.4403 81.3562C48.4325 81.2606 48.4119 81.1539 48.3782 81.0362C48.3456 80.9305 48.3014 80.8318 48.2458 80.74C48.1782 80.6491 48.1116 80.5703 48.046 80.5033C47.9684 80.4374 47.8818 80.4083 47.7861 80.4161L47.7715 80.2367L50.0859 80.0488L50.1005 80.2282C50.0168 80.235 49.9419 80.2772 49.876 80.3548C49.8101 80.4324 49.7571 80.521 49.717 80.6205C49.6649 80.7211 49.6313 80.8261 49.6161 80.9357C49.6019 81.0573 49.5987 81.1659 49.6065 81.2616L49.8774 84.5986C49.9123 85.0292 50.0027 85.4011 50.1485 85.7143C50.2943 86.0275 50.4777 86.2836 50.6985 86.4823C50.9193 86.6811 51.1651 86.8177 51.436 86.892C51.6959 86.9793 51.9575 87.0122 52.2206 86.9909C52.4837 86.9695 52.7425 86.8943 52.9969 86.7653C53.2393 86.6373 53.4549 86.4753 53.6437 86.2794C53.8215 86.0964 53.9664 85.88 54.0786 85.6301C54.1798 85.3931 54.2201 85.149 54.1998 84.8979L53.8764 80.915C53.8687 80.8193 53.848 80.7126 53.8143 80.5949C53.7817 80.4892 53.7375 80.3905 53.6819 80.2987C53.6144 80.2078 53.5478 80.129 53.4821 80.0621C53.4045 79.9961 53.3179 79.967 53.2222 79.9748L53.2077 79.7954L55.54 79.6061L55.5546 79.7855C55.4708 79.7923 55.396 79.8345 55.3301 79.9121C55.2641 79.9896 55.2111 80.0782 55.171 80.1778C55.119 80.2783 55.0854 80.3834 55.0702 80.493C55.056 80.6145 55.0528 80.7232 55.0605 80.8188L55.4625 85.7706C55.479 85.9739 55.5244 86.1628 55.5988 86.3374C55.6741 86.5239 55.8558 86.6115 56.1439 86.6001L56.157 86.7616L54.4095 87.4814L54.3294 86.4946C54.2534 86.5971 54.154 86.7075 54.0312 86.8258C53.9093 86.9561 53.7626 87.0764 53.5909 87.1866C53.4083 87.3098 53.1998 87.411 52.9655 87.4902C52.7201 87.5824 52.43 87.642 52.0951 87.6692C51.5329 87.7149 51.0467 87.658 50.6365 87.4987C50.2263 87.3394 49.8829 87.1144 49.6065 86.8238C49.3311 86.5452 49.1245 86.2248 48.9867 85.8628C48.838 85.5137 48.7496 85.1657 48.7214 84.8189L48.4403 81.3562Z" fill="white"/>
<path d="M39.1644 82.919C39.2593 82.5071 39.2972 82.0941 39.2783 81.68C39.2554 81.2773 39.1732 80.8982 39.0317 80.5426C38.8789 80.183 38.6572 79.8563 38.3666 79.5625C38.072 79.28 37.6928 79.0567 37.2289 78.8925C36.9801 78.8044 36.7079 78.7463 36.4124 78.7181C36.1015 78.6971 35.8033 78.7125 35.5177 78.7642C35.2321 78.8159 34.9648 78.9058 34.7157 79.0341C34.4513 79.1696 34.2411 79.3498 34.0852 79.5747L33.9325 79.5206L34.3829 78.248C34.4508 78.272 34.538 78.2774 34.6445 78.2642C34.7397 78.247 34.8559 78.2244 34.993 78.1966C35.2673 78.1409 35.6248 78.102 36.0655 78.0797C36.5021 78.0688 37.0372 78.1754 37.6707 78.3997C38.1798 78.5798 38.6402 78.8255 39.0519 79.1368C39.4524 79.444 39.7739 79.8124 40.0164 80.2419C40.259 80.6715 40.4037 81.1618 40.4505 81.713C40.4859 82.2602 40.3875 82.8619 40.1553 83.518C40.0072 83.9365 39.7891 84.3367 39.5013 84.7186C39.202 85.0964 38.851 85.4049 38.4481 85.6442C38.0298 85.8908 37.5564 86.0415 37.0278 86.0962C36.4993 86.151 35.9182 86.0663 35.2848 85.8421C34.7191 85.6419 34.2611 85.3715 33.9106 85.0311C33.5488 84.6866 33.2922 84.2967 33.1408 83.8612C32.9781 83.4217 32.911 82.9461 32.9394 82.4342C32.9678 81.9224 33.0801 81.3893 33.2763 80.835L39.1644 82.919ZM35.5508 85.3061C35.9467 85.4463 36.3198 85.4892 36.67 85.4349C37.0088 85.3767 37.3241 85.2591 37.6158 85.0823C37.9075 84.9055 38.166 84.6788 38.3912 84.4021C38.6165 84.1254 38.8021 83.8346 38.9482 83.5299L34.1121 81.8182C34.0073 82.1503 33.9555 82.4947 33.9565 82.8515C33.9462 83.2043 33.9931 83.5391 34.0974 83.8561C34.2016 84.173 34.3747 84.4571 34.6168 84.7082C34.8549 84.9707 35.1662 85.17 35.5508 85.3061Z" fill="white"/>
<path d="M23.1787 70.6979C23.2366 70.637 23.2981 70.5548 23.3634 70.4512C23.4204 70.3564 23.4731 70.2575 23.5214 70.1544C23.5527 70.0517 23.5671 69.9495 23.5645 69.8477C23.5619 69.7459 23.5258 69.662 23.4562 69.5958L23.5802 69.4654L24.8458 70.6682L24.1638 71.3858C24.4762 71.3184 24.8453 71.3133 25.2711 71.3704C25.697 71.4274 26.11 71.6461 26.5101 72.0264C27.0146 72.5058 27.3321 72.9731 27.4625 73.4281C27.5929 73.8832 27.6082 74.3199 27.5085 74.7384C27.4088 75.1568 27.2319 75.5433 26.9778 75.8977C26.7154 76.2609 26.452 76.5817 26.1874 76.86L24.4142 78.7258C24.3398 78.8041 24.2739 78.8822 24.2165 78.96C24.1421 79.0383 24.0933 79.1244 24.0703 79.2184C24.0385 79.3041 24.0365 79.3932 24.0643 79.4859C24.0839 79.5873 24.1502 79.6917 24.2633 79.7991L24.1517 79.9166L22.4371 79.0817L25.5991 75.7546C26.2274 75.0935 26.5468 74.47 26.5573 73.884C26.5679 73.2981 26.3644 72.8067 25.9469 72.4099C25.7208 72.195 25.4752 72.0527 25.2103 71.983C24.9285 71.9138 24.6605 71.8909 24.4065 71.9144C24.1437 71.9295 23.9116 71.9821 23.7102 72.0721C23.5001 72.1539 23.3496 72.2426 23.2586 72.3383L20.6174 75.1174C20.543 75.1957 20.4771 75.2737 20.4196 75.3516C20.3452 75.4299 20.2965 75.516 20.2734 75.6099C20.2417 75.6956 20.2397 75.7848 20.2675 75.8775C20.2871 75.9788 20.3534 76.0832 20.4665 76.1907L20.3549 76.3081L18.6403 75.4732L23.1787 70.6979Z" fill="white"/>
<path d="M12.3273 63.3246C12.1735 63.5584 12.1034 63.7586 12.117 63.9252C12.1306 64.0918 12.1816 64.267 12.2701 64.4508C12.3273 64.5698 12.4168 64.6865 12.5385 64.8011C12.655 64.9048 12.7878 65.0007 12.9367 65.0889C13.0857 65.177 13.2454 65.2599 13.416 65.3376C13.5706 65.4097 13.7119 65.4682 13.84 65.5131L18.0571 63.4835C18.1436 63.4419 18.2303 63.3868 18.3172 63.3184C18.4041 63.2499 18.4858 63.1706 18.5623 63.0805C18.6228 62.9849 18.6724 62.8944 18.7113 62.8091C18.7341 62.7182 18.7247 62.6295 18.6831 62.543L18.8453 62.4649L19.8601 64.5734L19.6979 64.6515C19.6615 64.5758 19.6006 64.5185 19.5153 64.4797C19.4192 64.446 19.3175 64.4284 19.2102 64.4268C19.0869 64.4195 18.9713 64.4285 18.8636 64.4537C18.7559 64.4789 18.6588 64.5124 18.5723 64.554L14.0471 66.7319C13.8957 66.8047 13.7677 66.9262 13.6632 67.0964C13.5586 67.2666 13.529 67.454 13.5742 67.6586L13.4444 67.7211L12.1694 66.3171L13.1426 65.8487C12.9768 65.8087 12.8139 65.7606 12.6537 65.7045C12.4827 65.6536 12.3227 65.5841 12.1738 65.496C12.0088 65.4022 11.8603 65.2873 11.7281 65.1511C11.5852 65.0202 11.4617 64.8465 11.3576 64.6303C11.2848 64.4789 11.2235 64.2687 11.1739 63.9995C11.1243 63.7304 11.1009 63.502 11.1038 63.3142L12.3273 63.3246Z" fill="white"/>
<path d="M15.6421 51.8017C15.693 52.3996 15.6431 52.9458 15.4925 53.4403C15.3299 53.9359 15.0959 54.3713 14.7906 54.7465C14.4724 55.1108 14.0882 55.4084 13.6381 55.6394C13.1871 55.8584 12.6865 55.9913 12.1365 56.0381C11.5506 56.0879 11.0099 56.0315 10.5144 55.8689C10.0068 55.7074 9.56446 55.462 9.1872 55.1327C8.80994 54.8035 8.50481 54.4019 8.27181 53.928C8.0388 53.454 7.89789 52.9301 7.84908 52.3562C7.80026 51.7822 7.85117 51.248 8.0018 50.7535C8.14047 50.2599 8.36246 49.8255 8.66776 49.4503C8.97306 49.0751 9.35073 48.772 9.80077 48.541C10.2389 48.3111 10.7329 48.1727 11.2829 48.1259C11.7971 48.0822 12.3069 48.1292 12.8124 48.2668C13.3049 48.3935 13.7512 48.6145 14.1514 48.9297C14.5505 49.233 14.885 49.6261 15.1549 50.1089C15.4238 50.5798 15.5862 51.1441 15.6421 51.8017ZM8.45924 52.521C8.51977 52.9495 8.65992 53.3229 8.87971 53.6414C9.08652 53.949 9.34905 54.2037 9.66729 54.4054C9.97256 54.5963 10.3156 54.7357 10.6964 54.8237C11.0763 54.8998 11.4575 54.9216 11.8401 54.889C12.2825 54.8514 12.7073 54.749 13.1146 54.5819C13.509 54.4039 13.8569 54.1756 14.1584 53.897C14.4588 53.6065 14.6894 53.2738 14.8502 52.8988C15.011 52.5238 15.0726 52.1151 15.035 51.6727C14.9974 51.2303 14.8687 50.8498 14.6489 50.5313C14.4281 50.2009 14.1586 49.9347 13.8403 49.733C13.5101 49.5322 13.1491 49.3943 12.7574 49.3193C12.3646 49.2322 11.9769 49.205 11.5943 49.2375C11.1997 49.2711 10.8102 49.3645 10.4258 49.5176C10.0294 49.6717 9.6805 49.8881 9.37902 50.1666C9.06559 50.4462 8.82351 50.7859 8.65279 51.1858C8.48105 51.5738 8.41653 52.0189 8.45924 52.521Z" fill="white"/>
<path d="M15.4613 35.2752C15.7577 35.3727 16.0069 35.5367 16.209 35.7673C16.4111 35.998 16.566 36.2763 16.6736 36.6022C16.7735 36.9129 16.8243 37.258 16.8259 37.6375C16.816 38.0132 16.7456 38.4006 16.6144 38.7996C16.4533 39.2898 16.2594 39.6682 16.0328 39.9347C15.7949 40.1976 15.5719 40.4148 15.3639 40.5864C15.224 40.7046 15.1049 40.8171 15.0067 40.9237C14.8971 41.0267 14.8179 41.1522 14.7692 41.3004L13.4696 40.8732L13.5258 40.7022C13.6966 40.7205 13.9052 40.6817 14.1514 40.5858C14.3901 40.4747 14.6266 40.3314 14.8612 40.1559C15.0995 39.969 15.3206 39.7574 15.5245 39.5213C15.7208 39.2701 15.8658 39.0019 15.9595 38.7169C16.0269 38.5117 16.0734 38.2933 16.099 38.0617C16.1246 37.8302 16.1142 37.612 16.0679 37.4073C16.0252 37.1911 15.9485 37.0017 15.8378 36.839C15.7194 36.6612 15.5519 36.5366 15.3353 36.4654C15.1187 36.3942 14.91 36.3951 14.7092 36.468C14.5084 36.541 14.3191 36.6556 14.1414 36.8119C13.9523 36.9645 13.771 37.1512 13.5973 37.372C13.4237 37.5928 13.2557 37.8155 13.0935 38.0401C12.9049 38.3065 12.703 38.5749 12.4878 38.8452C12.2764 39.1041 12.0572 39.3289 11.8303 39.5196C11.592 39.7066 11.3402 39.8385 11.0749 39.9155C10.7982 39.9888 10.5059 39.9748 10.1981 39.8736C9.93593 39.7875 9.70012 39.6594 9.4907 39.4895C9.28503 39.3082 9.1323 39.0812 9.0325 38.8084C8.92504 38.5204 8.8781 38.1829 8.89167 37.7958C8.89384 37.4049 8.97736 36.9586 9.14224 36.4571C9.28839 36.0125 9.44071 35.6836 9.5992 35.4704C9.75004 35.2421 9.89159 35.0613 10.0239 34.9279C10.1146 34.844 10.1939 34.7564 10.2618 34.6651C10.3184 34.57 10.3672 34.4597 10.4084 34.3343L11.6054 34.7278L11.5605 34.8646C11.1168 34.9461 10.7288 35.1659 10.3963 35.524C10.0639 35.8821 9.82458 36.2834 9.67843 36.728C9.58475 37.013 9.54408 37.2713 9.55643 37.5027C9.55738 37.7304 9.59237 37.9313 9.6614 38.1056C9.72278 38.2647 9.81062 38.401 9.92494 38.5144C10.043 38.6163 10.1704 38.6898 10.3072 38.7348C10.501 38.7985 10.6832 38.8015 10.8537 38.7439C11.028 38.6748 11.1964 38.566 11.359 38.4173C11.5253 38.2572 11.6915 38.0782 11.8576 37.8802C12.0275 37.6708 12.1955 37.4481 12.3615 37.2121C12.569 36.9266 12.7879 36.6449 13.0182 36.3669C13.2371 36.0852 13.4733 35.847 13.7268 35.6525C13.9802 35.4579 14.2529 35.3201 14.5447 35.2392C14.8252 35.1546 15.1307 35.1666 15.4613 35.2752Z" fill="white"/>
<path d="M17.7756 27.1456C18.1273 27.3801 18.5002 27.5618 18.8941 27.6905C19.279 27.8116 19.6627 27.8688 20.0453 27.8623C20.4357 27.8466 20.8197 27.7548 21.1973 27.5869C21.5658 27.4113 21.9088 27.1356 22.2264 26.7599C22.3969 26.5583 22.5475 26.3243 22.6785 26.0578C22.808 25.7745 22.8991 25.4901 22.9519 25.2047C23.0046 24.9193 23.015 24.6374 22.9832 24.3591C22.9499 24.0639 22.8557 23.8035 22.7006 23.5781L22.8052 23.4544L23.8362 24.3259C23.7897 24.3809 23.7538 24.4606 23.7285 24.5649C23.7109 24.66 23.6909 24.7766 23.6684 24.9148C23.6234 25.191 23.5334 25.5392 23.3983 25.9592C23.254 26.3715 22.9649 26.8342 22.5311 27.3474C22.1825 27.7598 21.7898 28.1035 21.353 28.3786C20.924 28.6444 20.4657 28.8148 19.9781 28.8897C19.4905 28.9646 18.9807 28.9265 18.4486 28.7752C17.9243 28.6148 17.3963 28.3099 16.8648 27.8606C16.5257 27.574 16.2285 27.2285 15.9733 26.8241C15.7257 26.4106 15.5613 25.9731 15.4801 25.5115C15.3974 25.0331 15.424 24.537 15.5597 24.0233C15.6955 23.5095 15.9803 22.996 16.4141 22.4828C16.8015 22.0246 17.2164 21.6918 17.6588 21.4844C18.109 21.2679 18.5645 21.1659 19.0254 21.1783C19.494 21.1816 19.9626 21.2871 20.4313 21.4948C20.9 21.7024 21.3589 21.9961 21.8079 22.3757L17.7756 27.1456ZM16.8213 22.9213C16.5501 23.242 16.378 23.5758 16.3049 23.9225C16.2395 24.2601 16.2379 24.5965 16.3001 24.9319C16.3622 25.2673 16.4829 25.5893 16.662 25.8979C16.8411 26.2064 17.0474 26.4829 17.2807 26.7273L20.5926 22.8096C20.3191 22.5941 20.0153 22.4237 19.6812 22.2984C19.3549 22.164 19.0251 22.0895 18.6918 22.0748C18.3584 22.0602 18.0315 22.1216 17.711 22.2592C17.3812 22.389 17.0847 22.6097 16.8213 22.9213Z" fill="white"/>
<path d="M39.191 14.7871C39.2268 14.8762 39.2781 14.972 39.345 15.0744C39.4075 15.1657 39.4789 15.247 39.5592 15.3182C39.6395 15.3895 39.7209 15.4473 39.8034 15.4918C39.897 15.5318 39.9884 15.534 40.0775 15.4982L40.1445 15.6653L37.9726 16.5364L37.9056 16.3694C37.9947 16.3336 38.0593 16.2689 38.0993 16.1753C38.1393 16.0817 38.1638 15.9814 38.1726 15.8744C38.1925 15.763 38.1935 15.6527 38.1756 15.5435C38.1532 15.4232 38.1241 15.3185 38.0884 15.2294L36.641 11.6208C36.5383 11.3647 36.401 11.1353 36.2292 10.9327C36.0686 10.7256 35.8824 10.5675 35.6706 10.4586C35.4543 10.3384 35.2203 10.2707 34.9685 10.2553C34.7122 10.2288 34.4504 10.2692 34.1831 10.3764C33.8824 10.497 33.6497 10.6744 33.485 10.9085C33.327 11.127 33.2158 11.3656 33.1514 11.6241C33.0982 11.8782 33.0806 12.1245 33.0987 12.3629C33.1122 12.5902 33.1458 12.7706 33.1994 12.9043L34.6803 16.5964C34.7161 16.6855 34.7674 16.7812 34.8344 16.8837C34.8968 16.975 34.9682 17.0562 35.0485 17.1275C35.1399 17.1942 35.2269 17.2499 35.3094 17.2943C35.403 17.3344 35.4944 17.3365 35.5835 17.3008L35.6505 17.4678L33.4954 18.3322L33.4284 18.1652C33.5063 18.1339 33.5653 18.0715 33.6053 17.9778C33.6454 17.8842 33.6698 17.7839 33.6786 17.6769C33.6985 17.5655 33.6996 17.4552 33.6816 17.346C33.6592 17.2257 33.6302 17.121 33.5944 17.0319L32.1068 13.3231C31.9996 13.0558 31.8512 12.8309 31.6616 12.6483C31.4787 12.4502 31.2725 12.3067 31.0429 12.2177C30.8244 12.1244 30.5915 12.0756 30.3441 12.0713C30.1079 12.0627 29.884 12.1007 29.6724 12.1856C29.3828 12.3018 29.149 12.4602 28.9709 12.6609C28.804 12.8572 28.6816 13.0679 28.6038 13.293C28.5372 13.5137 28.5051 13.7399 28.5076 13.9716C28.5167 14.1878 28.557 14.3849 28.6284 14.5631L30.1696 18.4056C30.2054 18.4947 30.2567 18.5904 30.3237 18.6929C30.3861 18.7842 30.4575 18.8655 30.5378 18.9367C30.6292 19.0035 30.7162 19.0591 30.7987 19.1036C30.8923 19.1436 30.9837 19.1457 31.0728 19.11L31.1398 19.2771L28.9847 20.1415L28.9177 19.9744C28.9956 19.9431 29.0546 19.8807 29.0947 19.7871C29.1347 19.6934 29.1591 19.5931 29.1679 19.4862C29.1879 19.3747 29.1889 19.2644 29.1709 19.1552C29.1485 19.0349 29.1195 18.9302 29.0837 18.8411L27.2946 14.3806C27.2589 14.2915 27.2131 14.1935 27.1573 14.0866C27.1015 13.9796 27.0368 13.8828 26.9631 13.7959C26.8895 13.7091 26.8003 13.6479 26.6956 13.6123C26.5908 13.5768 26.4716 13.5858 26.3379 13.6394L26.2776 13.4891L27.7104 12.2744L28.0522 13.1264C28.1433 12.8701 28.2979 12.5947 28.516 12.3004C28.7452 12.0015 29.0993 11.7561 29.5782 11.564C29.8901 11.4389 30.1864 11.3718 30.4671 11.3626C30.7479 11.3534 31.0064 11.3855 31.2427 11.4588C31.4856 11.5165 31.7097 11.6077 31.9148 11.7323C32.1199 11.8569 32.3005 11.9848 32.4567 12.1161C32.4787 11.9133 32.5175 11.7038 32.5731 11.4876C32.6241 11.2603 32.7041 11.0407 32.8131 10.8289C32.9332 10.6127 33.0924 10.4131 33.2905 10.2302C33.4998 10.0428 33.7659 9.88433 34.0889 9.75478C34.7126 9.50461 35.2473 9.41943 35.6931 9.49923C36.1388 9.57903 36.5078 9.74135 36.7999 9.98619C37.1032 10.2266 37.3464 10.5104 37.5294 10.8378C37.708 11.1541 37.8441 11.4292 37.938 11.6631L39.191 14.7871Z" fill="white"/>
<path d="M46.7143 15.0527L46.722 14.8728C46.8179 14.8769 46.9033 14.8445 46.9783 14.7756C47.0533 14.7067 47.1168 14.6254 47.1689 14.5315C47.2209 14.4376 47.2612 14.3372 47.2897 14.2304C47.3188 14.1115 47.3354 14.0041 47.3395 13.9082L47.5511 8.92666C47.5597 8.72285 47.5379 8.52975 47.4856 8.34736C47.4338 8.15299 47.2643 8.0437 46.977 8.01949L46.9839 7.85763L48.8067 7.35854L48.5264 13.9586C48.5223 14.0545 48.5297 14.1629 48.5486 14.2838C48.568 14.3927 48.5996 14.4962 48.6435 14.5941C48.6874 14.6921 48.7438 14.7786 48.8127 14.8535C48.8815 14.9285 48.9639 14.9681 49.0599 14.9721L49.0522 15.152L46.7143 15.0527ZM47.2076 5.56106C47.2178 5.32127 47.3044 5.12076 47.4673 4.95954C47.6423 4.79882 47.8497 4.72355 48.0895 4.73374C48.3293 4.74392 48.5295 4.8365 48.6902 5.01148C48.851 5.18646 48.9262 5.39384 48.916 5.63362C48.9059 5.87341 48.8135 6.06766 48.6391 6.21639C48.4646 6.36512 48.2575 6.4344 48.0177 6.42421C47.7779 6.41403 47.5774 6.32744 47.4162 6.16445C47.2669 6.00197 47.1974 5.80084 47.2076 5.56106Z" fill="white"/>
<path d="M62.4089 17.2275C62.3725 17.3163 62.3426 17.4208 62.3193 17.5409C62.3006 17.6499 62.2952 17.758 62.3032 17.865C62.3224 17.9766 62.346 18.0771 62.3742 18.1664C62.4136 18.2604 62.4776 18.3255 62.5665 18.3619L62.4982 18.5285L60.3496 17.648L60.4179 17.4814C60.4956 17.5133 60.5814 17.5095 60.6754 17.4702C60.7693 17.4309 60.8567 17.3759 60.9375 17.3053C61.0294 17.2392 61.1069 17.1608 61.1701 17.0699C61.2378 16.968 61.2899 16.8726 61.3263 16.7838L62.5958 13.6858C62.7597 13.2861 62.8475 12.9136 62.8593 12.5683C62.8711 12.223 62.8236 11.9117 62.7168 11.6345C62.6099 11.3573 62.4525 11.1242 62.2447 10.9352C62.0524 10.7397 61.8342 10.5919 61.5899 10.4918C61.3456 10.3917 61.0808 10.3416 60.7956 10.3414C60.5215 10.3458 60.2559 10.3926 59.9989 10.4818C59.7575 10.5644 59.5303 10.6917 59.3171 10.8638C59.1196 11.0292 58.9731 11.2286 58.8775 11.4617L57.3622 15.1593C57.3258 15.2481 57.296 15.3526 57.2727 15.4727C57.2539 15.5818 57.2486 15.6898 57.2566 15.7968C57.2757 15.9084 57.2994 16.0089 57.3276 16.0983C57.3669 16.1922 57.431 16.2574 57.5198 16.2938L57.4515 16.4603L55.2863 15.573L55.3546 15.4064C55.4323 15.4383 55.5181 15.4346 55.612 15.3952C55.706 15.3559 55.7933 15.3009 55.8742 15.2303C55.9661 15.1642 56.0436 15.0858 56.1068 14.9949C56.1745 14.893 56.2266 14.7976 56.263 14.7088L58.1468 10.1118C58.2242 9.92307 58.2692 9.73403 58.282 9.54472C58.2993 9.34431 58.1769 9.18395 57.915 9.06363L57.9764 8.91373L59.8604 9.06332L59.485 9.97938C59.5991 9.9224 59.7378 9.86897 59.9008 9.81909C60.0685 9.75811 60.2538 9.71733 60.4568 9.69676C60.6754 9.66963 60.9071 9.67381 61.1519 9.7093C61.4124 9.73824 61.6981 9.81641 62.009 9.94383C62.5309 10.1577 62.9386 10.4285 63.2322 10.7564C63.5259 11.0842 63.7301 11.4402 63.845 11.8245C63.9644 12.1976 64.0035 12.5768 63.9624 12.962C63.9369 13.3406 63.8582 13.6909 63.7262 14.0129L62.4089 17.2275Z" fill="white"/>
<path d="M71.2959 25.1948L71.959 24.5599L71.8318 24.5572C71.4076 24.5479 70.9979 24.4584 70.6027 24.2885C70.2158 24.1273 69.8315 23.8473 69.4498 23.4486C69.1593 23.1452 68.9451 22.8519 68.807 22.5689C68.6688 22.2858 68.5941 22.0168 68.5827 21.7619C68.5799 21.4987 68.6277 21.2537 68.726 21.0266C68.8326 20.8083 68.9769 20.612 69.159 20.4377C69.4537 20.1556 69.7884 19.9846 70.1632 19.9249C70.5462 19.8739 70.9696 19.917 71.4334 20.0545C71.8972 20.1919 72.4059 20.4109 72.9595 20.7116C73.5301 21.0126 74.1544 21.3784 74.8325 21.8091C75.154 21.4681 75.3607 21.1373 75.4525 20.8168C75.5444 20.4963 75.5678 20.1998 75.5228 19.9272C75.4865 19.6463 75.3986 19.3983 75.259 19.1831C75.1281 18.9595 75.0004 18.7828 74.8759 18.6527C74.6601 18.4274 74.4346 18.2612 74.1993 18.1542C73.9723 18.0559 73.7402 17.9957 73.503 17.9735C73.2828 17.9517 73.0662 17.9598 72.8532 17.9975C72.6489 18.027 72.4655 18.0697 72.303 18.1256L72.191 18.0086L73.1401 17.0999C73.2152 17.161 73.2991 17.2052 73.3919 17.2327C73.4846 17.2602 73.5898 17.3007 73.7075 17.3542C73.884 17.4344 74.1278 17.5416 74.4389 17.6757C74.7586 17.8014 75.1135 18.068 75.5036 18.4755C75.96 18.9522 76.2686 19.396 76.4294 19.8069C76.5901 20.2178 76.6455 20.5967 76.5955 20.9436C76.5538 21.2992 76.4279 21.6274 76.2176 21.9284C76.016 22.221 75.7809 22.496 75.5121 22.7532L72.9377 25.2178C72.7643 25.3838 72.637 25.5805 72.5556 25.8079C72.4829 26.0269 72.5088 26.2015 72.6333 26.3315L72.5033 26.456L71.2959 25.1948ZM72.5311 24.0123L74.3904 22.2323L74.24 22.1271C73.9888 21.9689 73.6747 21.7796 73.2975 21.5592C72.9287 21.3474 72.5463 21.1736 72.1504 21.0376C71.7544 20.9017 71.3698 20.8297 70.9966 20.8215C70.6233 20.8134 70.311 20.9296 70.0596 21.1703C69.7822 21.4358 69.6604 21.7684 69.6941 22.1681C69.7278 22.5677 69.919 22.9496 70.2675 23.3136C70.5413 23.5997 70.8427 23.793 71.1715 23.8935C71.509 23.9857 71.8645 24.0274 72.2382 24.0186L72.5311 24.0123Z" fill="white"/>
<path d="M83.6756 32.9742C83.8363 32.745 83.9123 32.547 83.9037 32.3801C83.8951 32.2131 83.8493 32.0365 83.7663 31.8501C83.7127 31.7295 83.6267 31.6102 83.5084 31.4921C83.3951 31.3849 83.2652 31.2851 83.119 31.1925C82.9727 31.1 82.8155 31.0124 82.6473 30.9296C82.495 30.853 82.3554 30.7903 82.2287 30.7416L77.9531 32.6448C77.8654 32.6839 77.7771 32.7363 77.6882 32.8021C77.5993 32.868 77.5153 32.9448 77.4361 33.0326C77.3728 33.1264 77.3205 33.2154 77.2791 33.2995C77.2536 33.3897 77.2603 33.4786 77.2994 33.5663L77.1349 33.6395L76.1833 31.5017L76.3478 31.4285C76.3819 31.5053 76.4411 31.5643 76.5252 31.6057C76.6202 31.6422 76.7214 31.6629 76.8286 31.6677C76.9516 31.6786 77.0674 31.673 77.1758 31.651C77.2842 31.629 77.3823 31.5985 77.47 31.5595L82.058 29.5172C82.2115 29.4489 82.343 29.3313 82.4526 29.1643C82.5621 28.9973 82.5974 28.8108 82.5583 28.605L82.6898 28.5464L83.9225 29.9877L82.9358 30.4269C83.1003 30.4719 83.2618 30.5248 83.4202 30.5856C83.5896 30.6416 83.7474 30.7158 83.8937 30.8083C84.0558 30.9069 84.2008 31.0262 84.3289 31.1663C84.4678 31.3014 84.5861 31.4786 84.6837 31.6979C84.752 31.8514 84.807 32.0634 84.8486 32.3338C84.8902 32.6043 84.9067 32.8333 84.8983 33.021L83.6756 32.9742Z" fill="white"/>
<path d="M77.4915 43.598C76.9766 43.4674 76.6197 43.277 76.4208 43.0269C76.2228 42.7888 76.1137 42.5321 76.0935 42.2568C76.0804 42.0773 76.0924 41.914 76.1298 41.7668C76.168 41.6317 76.219 41.5076 76.2829 41.3946C76.3357 41.2945 76.3898 41.2123 76.4453 41.1481C76.5007 41.0838 76.546 41.0444 76.581 41.0298L78.0786 41.5155C77.8675 41.5911 77.7104 41.6628 77.6071 41.7306C77.4918 41.7992 77.3902 41.8909 77.3024 42.0056C77.2145 42.1204 77.1763 42.2555 77.1878 42.4111C77.2089 42.6983 77.435 42.9103 77.8662 43.0471L80.1388 43.7646L86.461 40.3946C86.6002 40.3242 86.7543 40.2107 86.9233 40.0539C87.1051 39.9082 87.1872 39.7156 87.1697 39.4763L87.3492 39.4631L87.5232 41.8327L87.3436 41.8459C87.3401 41.798 87.2938 41.7413 87.2048 41.6756C87.1158 41.6099 87.0054 41.5819 86.8738 41.5916C86.7661 41.5995 86.6721 41.6305 86.5918 41.6845L81.6736 44.2656L87.0172 46.003C87.1036 46.0327 87.1827 46.0449 87.2545 46.0397C87.3742 46.0309 87.4669 45.982 87.5325 45.8929C87.599 45.8158 87.6292 45.7354 87.6231 45.6516L87.8026 45.6385L87.9305 47.3798L87.7509 47.393C87.7369 47.2015 87.6408 47.0401 87.4627 46.9088C87.2975 46.7885 87.11 46.694 86.9004 46.6252L77.4915 43.598Z" fill="white"/>
</svg>
